<mxfile host="Electron" agent="Mozilla/5.0 (Windows NT 10.0; Win64; x64) AppleWebKit/537.36 (KHTML, like Gecko) draw.io/27.0.9 Chrome/134.0.6998.205 Electron/35.4.0 Safari/537.36" version="27.0.9">
  <diagram name="Página-1" id="8-zg-FutYgX1FDoIY-Lt">
    <mxGraphModel dx="1426" dy="841" grid="0" gridSize="10" guides="1" tooltips="1" connect="1" arrows="1" fold="1" page="1" pageScale="1" pageWidth="827" pageHeight="1169" background="#ffffff" math="0" shadow="0">
      <root>
        <mxCell id="0" />
        <mxCell id="1" parent="0" />
        <mxCell id="9RZHDo-6hjRNsBoWMsQF-8" value="&lt;font style=&quot;color: rgb(0, 0, 0); font-size: 19px;&quot;&gt;Sistema &quot;Se Controle&quot;&lt;/font&gt;" style="text;html=1;align=center;verticalAlign=middle;resizable=0;points=[];autosize=1;strokeColor=none;fillColor=none;" parent="1" vertex="1">
          <mxGeometry x="539" y="15" width="206" height="35" as="geometry" />
        </mxCell>
        <mxCell id="zcc9LRr5MqMrH8K2ugcq-5" value="Usuário" style="swimlane;fontStyle=1;align=center;verticalAlign=top;childLayout=stackLayout;horizontal=1;startSize=26;horizontalStack=0;resizeParent=1;resizeParentMax=0;resizeLast=0;collapsible=1;marginBottom=0;whiteSpace=wrap;html=1;fillColor=none;fontColor=#000000;strokeColor=#000000;" parent="1" vertex="1">
          <mxGeometry x="30" y="71" width="172" height="188" as="geometry" />
        </mxCell>
        <mxCell id="zcc9LRr5MqMrH8K2ugcq-6" value="&lt;font style=&quot;color: rgb(0, 0, 0);&quot;&gt;&lt;font style=&quot;color: rgb(0, 0, 0);&quot;&gt;+ &lt;/font&gt;&lt;span style=&quot;background-color: transparent;&quot;&gt;id: UUID&lt;/span&gt;&lt;/font&gt;&lt;div&gt;&lt;span style=&quot;background-color: transparent;&quot;&gt;&lt;font style=&quot;color: rgb(0, 0, 0);&quot;&gt;+ nome: String&lt;/font&gt;&lt;/span&gt;&lt;/div&gt;&lt;div&gt;&lt;span style=&quot;background-color: transparent; color: rgb(0, 0, 0);&quot;&gt;+ email: String&lt;/span&gt;&lt;/div&gt;&lt;div&gt;&lt;span style=&quot;background-color: transparent; color: rgb(0, 0, 0);&quot;&gt;+ senha: String&lt;/span&gt;&lt;/div&gt;&lt;div&gt;&lt;span style=&quot;background-color: transparent; color: rgb(0, 0, 0);&quot;&gt;+&amp;nbsp;&lt;/span&gt;&lt;span style=&quot;background-color: transparent; color: rgb(0, 0, 0);&quot;&gt;telefone: String&lt;/span&gt;&lt;/div&gt;&lt;div&gt;&lt;span style=&quot;color: rgb(0, 0, 0); background-color: transparent;&quot;&gt;+ dataCadastro: DateTime&lt;/span&gt;&lt;/div&gt;&lt;div&gt;&lt;span style=&quot;background-color: transparent; color: rgb(0, 0, 0);&quot;&gt;&lt;font color=&quot;#000000&quot;&gt;&lt;div style=&quot;&quot;&gt;+ dataDeAlteracao: DateTime&lt;/div&gt;&lt;div style=&quot;&quot;&gt;+ alteracaoFeita: String&lt;/div&gt;&lt;/font&gt;&lt;/span&gt;&lt;/div&gt;" style="text;strokeColor=none;fillColor=none;align=left;verticalAlign=top;spacingLeft=4;spacingRight=4;overflow=hidden;rotatable=0;points=[[0,0.5],[1,0.5]];portConstraint=eastwest;whiteSpace=wrap;html=1;fontColor=#000000;" parent="zcc9LRr5MqMrH8K2ugcq-5" vertex="1">
          <mxGeometry y="26" width="172" height="128" as="geometry" />
        </mxCell>
        <mxCell id="zcc9LRr5MqMrH8K2ugcq-7" value="" style="line;strokeWidth=1;fillColor=none;align=left;verticalAlign=middle;spacingTop=-1;spacingLeft=3;spacingRight=3;rotatable=0;labelPosition=right;points=[];portConstraint=eastwest;strokeColor=inherit;" parent="zcc9LRr5MqMrH8K2ugcq-5" vertex="1">
          <mxGeometry y="154" width="172" height="8" as="geometry" />
        </mxCell>
        <mxCell id="zcc9LRr5MqMrH8K2ugcq-8" value="+ method(type): type" style="text;strokeColor=none;fillColor=none;align=left;verticalAlign=top;spacingLeft=4;spacingRight=4;overflow=hidden;rotatable=0;points=[[0,0.5],[1,0.5]];portConstraint=eastwest;whiteSpace=wrap;html=1;fontColor=#000000;" parent="zcc9LRr5MqMrH8K2ugcq-5" vertex="1">
          <mxGeometry y="162" width="172" height="26" as="geometry" />
        </mxCell>
        <mxCell id="zcc9LRr5MqMrH8K2ugcq-9" value="Ambiente" style="swimlane;fontStyle=1;align=center;verticalAlign=top;childLayout=stackLayout;horizontal=1;startSize=26;horizontalStack=0;resizeParent=1;resizeParentMax=0;resizeLast=0;collapsible=1;marginBottom=0;whiteSpace=wrap;html=1;fillColor=none;fontColor=#000000;strokeColor=#000000;" parent="1" vertex="1">
          <mxGeometry x="218" y="71" width="175" height="198" as="geometry" />
        </mxCell>
        <mxCell id="zcc9LRr5MqMrH8K2ugcq-10" value="&lt;font style=&quot;color: rgb(0, 0, 0);&quot;&gt;+ &lt;span style=&quot;background-color: transparent;&quot;&gt;id: UUID&lt;/span&gt;&lt;/font&gt;&lt;div&gt;&lt;span style=&quot;background-color: transparent;&quot;&gt;&lt;font style=&quot;color: rgb(0, 0, 0);&quot;&gt;+ nome: String&lt;/font&gt;&lt;/span&gt;&lt;/div&gt;&lt;div&gt;&lt;span style=&quot;background-color: transparent;&quot;&gt;&lt;font style=&quot;color: rgb(0, 0, 0);&quot;&gt;+ descrição: String&lt;/font&gt;&lt;/span&gt;&lt;/div&gt;&lt;div&gt;&lt;span style=&quot;background-color: transparent;&quot;&gt;&lt;font style=&quot;color: rgb(0, 0, 0);&quot;&gt;+ dataCriacao:&amp;nbsp;&lt;/font&gt;&lt;/span&gt;&lt;span style=&quot;color: rgb(0, 0, 0); background-color: transparent;&quot;&gt;DateTime&lt;/span&gt;&lt;/div&gt;&lt;div&gt;&lt;span style=&quot;background-color: transparent;&quot;&gt;&lt;font style=&quot;color: rgb(0, 0, 0);&quot;&gt;+ donoId: UUID&lt;/font&gt;&lt;/span&gt;&lt;/div&gt;&lt;div&gt;&lt;span style=&quot;background-color: transparent; color: rgb(0, 0, 0);&quot;&gt;+ UsuárioConvidadoID: UUID&amp;nbsp;&lt;/span&gt;&lt;/div&gt;&lt;div&gt;&lt;span style=&quot;background-color: transparent;&quot;&gt;&lt;font color=&quot;#000000&quot; style=&quot;color: rgb(0, 0, 0);&quot;&gt;&lt;div style=&quot;&quot;&gt;+ dataDeAlteracao: DateTime&amp;nbsp;&lt;/div&gt;&lt;div style=&quot;&quot;&gt;+ alteracaoFeita: String&lt;/div&gt;&lt;div style=&quot;&quot;&gt;+ compartilhada: Boolean&lt;/div&gt;&lt;/font&gt;&lt;/span&gt;&lt;/div&gt;" style="text;strokeColor=none;fillColor=none;align=left;verticalAlign=top;spacingLeft=4;spacingRight=4;overflow=hidden;rotatable=0;points=[[0,0.5],[1,0.5]];portConstraint=eastwest;whiteSpace=wrap;html=1;fontColor=#000000;" parent="zcc9LRr5MqMrH8K2ugcq-9" vertex="1">
          <mxGeometry y="26" width="175" height="138" as="geometry" />
        </mxCell>
        <mxCell id="zcc9LRr5MqMrH8K2ugcq-11" value="" style="line;strokeWidth=1;fillColor=none;align=left;verticalAlign=middle;spacingTop=-1;spacingLeft=3;spacingRight=3;rotatable=0;labelPosition=right;points=[];portConstraint=eastwest;strokeColor=inherit;" parent="zcc9LRr5MqMrH8K2ugcq-9" vertex="1">
          <mxGeometry y="164" width="175" height="8" as="geometry" />
        </mxCell>
        <mxCell id="zcc9LRr5MqMrH8K2ugcq-12" value="+ method(type): type" style="text;strokeColor=none;fillColor=none;align=left;verticalAlign=top;spacingLeft=4;spacingRight=4;overflow=hidden;rotatable=0;points=[[0,0.5],[1,0.5]];portConstraint=eastwest;whiteSpace=wrap;html=1;fontColor=#000000;" parent="zcc9LRr5MqMrH8K2ugcq-9" vertex="1">
          <mxGeometry y="172" width="175" height="26" as="geometry" />
        </mxCell>
        <mxCell id="zcc9LRr5MqMrH8K2ugcq-13" value="&lt;font style=&quot;color: rgb(0, 0, 0);&quot;&gt;Meta&lt;/font&gt;" style="swimlane;fontStyle=1;align=center;verticalAlign=top;childLayout=stackLayout;horizontal=1;startSize=26;horizontalStack=0;resizeParent=1;resizeParentMax=0;resizeLast=0;collapsible=1;marginBottom=0;whiteSpace=wrap;html=1;fillColor=none;fontColor=#000000;strokeColor=#000000;" parent="1" vertex="1">
          <mxGeometry x="17" y="485" width="199" height="259" as="geometry" />
        </mxCell>
        <mxCell id="zcc9LRr5MqMrH8K2ugcq-14" value="&lt;span style=&quot;background-color: transparent;&quot;&gt;&lt;font style=&quot;color: rgb(0, 0, 0);&quot;&gt;- id: UUID&lt;/font&gt;&lt;/span&gt;&lt;div&gt;&lt;span style=&quot;color: rgb(0, 0, 0);&quot;&gt;+ nome: String&lt;/span&gt;&lt;font color=&quot;#000000&quot;&gt;&lt;br&gt;&lt;/font&gt;&lt;div&gt;&lt;span style=&quot;background-color: transparent;&quot;&gt;&lt;font style=&quot;color: rgb(0, 0, 0);&quot;&gt;+ descrição: String&lt;/font&gt;&lt;/span&gt;&lt;/div&gt;&lt;div&gt;&lt;span style=&quot;background-color: transparent;&quot;&gt;&lt;font style=&quot;color: rgb(0, 0, 0);&quot;&gt;+ valor: Decimal&lt;/font&gt;&lt;/span&gt;&lt;/div&gt;&lt;div&gt;&lt;span style=&quot;background-color: transparent;&quot;&gt;&lt;font style=&quot;color: rgb(0, 0, 0);&quot;&gt;+ dataLimite: Date&lt;/font&gt;&lt;/span&gt;&lt;/div&gt;&lt;div&gt;&lt;div style=&quot;color: rgb(0, 0, 0);&quot;&gt;&lt;font color=&quot;#000000&quot;&gt;~ associadoAmbienteID: UUID&lt;/font&gt;&lt;/div&gt;&lt;/div&gt;&lt;div&gt;&lt;div style=&quot;color: rgb(0, 0, 0);&quot;&gt;&lt;span style=&quot;background-color: transparent;&quot;&gt;~ associadoTipoDespesaId: UUID&lt;/span&gt;&lt;/div&gt;&lt;/div&gt;&lt;div&gt;&lt;span style=&quot;background-color: transparent;&quot;&gt;&lt;font style=&quot;color: rgb(0, 0, 0);&quot;&gt;&lt;font color=&quot;#000000&quot;&gt;+ compartilhada: Boolean&lt;/font&gt;&lt;div style=&quot;&quot;&gt;&lt;font color=&quot;#000000&quot;&gt;# dataCriacao: Date&lt;/font&gt;&lt;/div&gt;&lt;div style=&quot;&quot;&gt;&lt;font color=&quot;#000000&quot;&gt;# donoId: UUID&lt;/font&gt;&lt;/div&gt;&lt;div style=&quot;&quot;&gt;&lt;span style=&quot;background-color: transparent;&quot;&gt;~ usuárioConvidadoID: UUID&lt;/span&gt;&lt;/div&gt;&lt;div style=&quot;&quot;&gt;&lt;font color=&quot;#000000&quot;&gt;# dataDeAlteracao: DateTime&lt;/font&gt;&lt;/div&gt;&lt;div style=&quot;&quot;&gt;&lt;font color=&quot;#000000&quot;&gt;# alteracaoFeita: String&lt;/font&gt;&lt;/div&gt;&lt;/font&gt;&lt;/span&gt;&lt;/div&gt;&lt;/div&gt;" style="text;strokeColor=none;fillColor=none;align=left;verticalAlign=top;spacingLeft=4;spacingRight=4;overflow=hidden;rotatable=0;points=[[0,0.5],[1,0.5]];portConstraint=eastwest;whiteSpace=wrap;html=1;fontColor=#000000;" parent="zcc9LRr5MqMrH8K2ugcq-13" vertex="1">
          <mxGeometry y="26" width="199" height="199" as="geometry" />
        </mxCell>
        <mxCell id="zcc9LRr5MqMrH8K2ugcq-15" value="" style="line;strokeWidth=1;fillColor=none;align=left;verticalAlign=middle;spacingTop=-1;spacingLeft=3;spacingRight=3;rotatable=0;labelPosition=right;points=[];portConstraint=eastwest;strokeColor=inherit;" parent="zcc9LRr5MqMrH8K2ugcq-13" vertex="1">
          <mxGeometry y="225" width="199" height="8" as="geometry" />
        </mxCell>
        <mxCell id="zcc9LRr5MqMrH8K2ugcq-16" value="+ method(type): type" style="text;strokeColor=none;fillColor=none;align=left;verticalAlign=top;spacingLeft=4;spacingRight=4;overflow=hidden;rotatable=0;points=[[0,0.5],[1,0.5]];portConstraint=eastwest;whiteSpace=wrap;html=1;fontColor=#000000;" parent="zcc9LRr5MqMrH8K2ugcq-13" vertex="1">
          <mxGeometry y="233" width="199" height="26" as="geometry" />
        </mxCell>
        <mxCell id="zcc9LRr5MqMrH8K2ugcq-17" value="&lt;font style=&quot;color: rgb(0, 0, 0);&quot;&gt;TipoDespesa&lt;/font&gt;" style="swimlane;fontStyle=1;align=center;verticalAlign=top;childLayout=stackLayout;horizontal=1;startSize=26;horizontalStack=0;resizeParent=1;resizeParentMax=0;resizeLast=0;collapsible=1;marginBottom=0;whiteSpace=wrap;html=1;fillColor=none;fontColor=#000000;strokeColor=#000000;" parent="1" vertex="1">
          <mxGeometry x="31" y="270" width="171" height="202" as="geometry">
            <mxRectangle x="559" y="155" width="105" height="26" as="alternateBounds" />
          </mxGeometry>
        </mxCell>
        <mxCell id="zcc9LRr5MqMrH8K2ugcq-18" value="&lt;font style=&quot;color: rgb(0, 0, 0);&quot;&gt;+ &lt;span style=&quot;background-color: transparent;&quot;&gt;id: UUID&lt;/span&gt;&lt;/font&gt;&lt;div&gt;&lt;span style=&quot;background-color: transparent;&quot;&gt;&lt;font style=&quot;color: rgb(0, 0, 0);&quot;&gt;+ nome: String&lt;/font&gt;&lt;/span&gt;&lt;/div&gt;&lt;div&gt;&lt;span style=&quot;background-color: transparent;&quot;&gt;&lt;font style=&quot;color: rgb(0, 0, 0);&quot;&gt;+ descrição: String&lt;/font&gt;&lt;/span&gt;&lt;/div&gt;&lt;div&gt;&lt;span style=&quot;background-color: transparent;&quot;&gt;&lt;font style=&quot;color: rgb(0, 0, 0);&quot;&gt;+ ambienteId: UUID&lt;/font&gt;&lt;/span&gt;&lt;/div&gt;&lt;div&gt;&lt;span style=&quot;color: rgb(0, 0, 0); background-color: transparent;&quot;&gt;+ dataDeAlteracao: DateTime&amp;nbsp;&lt;/span&gt;&lt;/div&gt;&lt;div&gt;&lt;span style=&quot;background-color: transparent;&quot;&gt;&lt;font color=&quot;#000000&quot; style=&quot;color: rgb(0, 0, 0);&quot;&gt;&lt;div style=&quot;&quot;&gt;+ alteracaoFeita: String&lt;/div&gt;&lt;div style=&quot;&quot;&gt;+ Colunas: colunas JSON ou estrutura dinâmica&lt;/div&gt;&lt;/font&gt;&lt;/span&gt;&lt;/div&gt;" style="text;strokeColor=none;fillColor=none;align=left;verticalAlign=top;spacingLeft=4;spacingRight=4;overflow=hidden;rotatable=0;points=[[0,0.5],[1,0.5]];portConstraint=eastwest;whiteSpace=wrap;html=1;fontColor=#000000;" parent="zcc9LRr5MqMrH8K2ugcq-17" vertex="1">
          <mxGeometry y="26" width="171" height="142" as="geometry" />
        </mxCell>
        <mxCell id="zcc9LRr5MqMrH8K2ugcq-19" value="" style="line;strokeWidth=1;fillColor=none;align=left;verticalAlign=middle;spacingTop=-1;spacingLeft=3;spacingRight=3;rotatable=0;labelPosition=right;points=[];portConstraint=eastwest;strokeColor=inherit;" parent="zcc9LRr5MqMrH8K2ugcq-17" vertex="1">
          <mxGeometry y="168" width="171" height="8" as="geometry" />
        </mxCell>
        <mxCell id="zcc9LRr5MqMrH8K2ugcq-20" value="+ method(type): type" style="text;strokeColor=none;fillColor=none;align=left;verticalAlign=top;spacingLeft=4;spacingRight=4;overflow=hidden;rotatable=0;points=[[0,0.5],[1,0.5]];portConstraint=eastwest;whiteSpace=wrap;html=1;fontColor=#000000;" parent="zcc9LRr5MqMrH8K2ugcq-17" vertex="1">
          <mxGeometry y="176" width="171" height="26" as="geometry" />
        </mxCell>
        <mxCell id="zcc9LRr5MqMrH8K2ugcq-25" value="&lt;font&gt;Permissão&lt;/font&gt;" style="swimlane;fontStyle=1;align=center;verticalAlign=top;childLayout=stackLayout;horizontal=1;startSize=26;horizontalStack=0;resizeParent=1;resizeParentMax=0;resizeLast=0;collapsible=1;marginBottom=0;whiteSpace=wrap;html=1;fillColor=none;fontColor=#000000;strokeColor=#000000;" parent="1" vertex="1">
          <mxGeometry x="650" y="99" width="160" height="171" as="geometry" />
        </mxCell>
        <mxCell id="zcc9LRr5MqMrH8K2ugcq-26" value="&lt;span style=&quot;background-color: transparent;&quot;&gt;&lt;font style=&quot;color: rgb(0, 0, 0);&quot;&gt;+ id: UUID&lt;/font&gt;&lt;/span&gt;&lt;div&gt;&lt;span style=&quot;background-color: transparent;&quot;&gt;&lt;font style=&quot;color: rgb(0, 0, 0);&quot;&gt;+ usuarioId: UUID&lt;/font&gt;&lt;/span&gt;&lt;/div&gt;&lt;div&gt;&lt;span style=&quot;background-color: transparent;&quot;&gt;&lt;font style=&quot;color: rgb(0, 0, 0);&quot;&gt;+ ambienteId: UUID&lt;/font&gt;&lt;/span&gt;&lt;/div&gt;&lt;div&gt;&lt;span style=&quot;background-color: transparent;&quot;&gt;&lt;font style=&quot;color: rgb(0, 0, 0);&quot;&gt;+ podeEditar: Boolean&lt;/font&gt;&lt;/span&gt;&lt;/div&gt;&lt;div&gt;&lt;span style=&quot;background-color: transparent;&quot;&gt;&lt;font color=&quot;#000000&quot; style=&quot;color: rgb(0, 0, 0);&quot;&gt;&lt;div style=&quot;&quot;&gt;+ usuariodonoId: UUID&lt;/div&gt;&lt;div style=&quot;&quot;&gt;+ ambienteId: UUID&lt;/div&gt;&lt;div style=&quot;&quot;&gt;+ metaId: UUID&lt;/div&gt;&lt;div style=&quot;&quot;&gt;&lt;br&gt;&lt;/div&gt;&lt;/font&gt;&lt;/span&gt;&lt;/div&gt;" style="text;strokeColor=none;fillColor=none;align=left;verticalAlign=top;spacingLeft=4;spacingRight=4;overflow=hidden;rotatable=0;points=[[0,0.5],[1,0.5]];portConstraint=eastwest;whiteSpace=wrap;html=1;fontColor=#000000;" parent="zcc9LRr5MqMrH8K2ugcq-25" vertex="1">
          <mxGeometry y="26" width="160" height="111" as="geometry" />
        </mxCell>
        <mxCell id="zcc9LRr5MqMrH8K2ugcq-27" value="" style="line;strokeWidth=1;fillColor=none;align=left;verticalAlign=middle;spacingTop=-1;spacingLeft=3;spacingRight=3;rotatable=0;labelPosition=right;points=[];portConstraint=eastwest;strokeColor=inherit;" parent="zcc9LRr5MqMrH8K2ugcq-25" vertex="1">
          <mxGeometry y="137" width="160" height="8" as="geometry" />
        </mxCell>
        <mxCell id="zcc9LRr5MqMrH8K2ugcq-28" value="+ method(type): type" style="text;strokeColor=none;fillColor=none;align=left;verticalAlign=top;spacingLeft=4;spacingRight=4;overflow=hidden;rotatable=0;points=[[0,0.5],[1,0.5]];portConstraint=eastwest;whiteSpace=wrap;html=1;fontColor=#000000;" parent="zcc9LRr5MqMrH8K2ugcq-25" vertex="1">
          <mxGeometry y="145" width="160" height="26" as="geometry" />
        </mxCell>
        <mxCell id="zcc9LRr5MqMrH8K2ugcq-29" value="&lt;font style=&quot;color: rgb(0, 0, 0);&quot;&gt;Notificação&lt;/font&gt;" style="swimlane;fontStyle=1;align=center;verticalAlign=top;childLayout=stackLayout;horizontal=1;startSize=26;horizontalStack=0;resizeParent=1;resizeParentMax=0;resizeLast=0;collapsible=1;marginBottom=0;whiteSpace=wrap;html=1;fillColor=none;fontColor=#000000;strokeColor=#000000;" parent="1" vertex="1">
          <mxGeometry x="422" y="97" width="160" height="145" as="geometry" />
        </mxCell>
        <mxCell id="zcc9LRr5MqMrH8K2ugcq-30" value="&lt;span style=&quot;background-color: transparent;&quot;&gt;&lt;font style=&quot;color: rgb(0, 0, 0);&quot;&gt;+ id: UUID&lt;/font&gt;&lt;/span&gt;&lt;div&gt;&lt;span style=&quot;background-color: transparent;&quot;&gt;&lt;font style=&quot;color: rgb(0, 0, 0);&quot;&gt;+ usuarioId: UUID&lt;/font&gt;&lt;/span&gt;&lt;/div&gt;&lt;div&gt;&lt;span style=&quot;background-color: transparent;&quot;&gt;&lt;font style=&quot;color: rgb(0, 0, 0);&quot;&gt;+ mensagem: String&lt;/font&gt;&lt;/span&gt;&lt;/div&gt;&lt;div&gt;&lt;span style=&quot;background-color: transparent;&quot;&gt;&lt;font style=&quot;color: rgb(0, 0, 0);&quot;&gt;+ dataEnvio: Date&lt;/font&gt;&lt;/span&gt;&lt;/div&gt;&lt;div&gt;&lt;span style=&quot;background-color: transparent;&quot;&gt;&lt;font style=&quot;color: rgb(0, 0, 0);&quot;&gt;&lt;font color=&quot;#000000&quot;&gt;+ lida: Boolean&lt;/font&gt;&lt;br&gt;&lt;div style=&quot;&quot;&gt;&lt;br&gt;&lt;/div&gt;&lt;/font&gt;&lt;/span&gt;&lt;/div&gt;" style="text;strokeColor=none;fillColor=none;align=left;verticalAlign=top;spacingLeft=4;spacingRight=4;overflow=hidden;rotatable=0;points=[[0,0.5],[1,0.5]];portConstraint=eastwest;whiteSpace=wrap;html=1;fontColor=#000000;" parent="zcc9LRr5MqMrH8K2ugcq-29" vertex="1">
          <mxGeometry y="26" width="160" height="85" as="geometry" />
        </mxCell>
        <mxCell id="zcc9LRr5MqMrH8K2ugcq-31" value="" style="line;strokeWidth=1;fillColor=none;align=left;verticalAlign=middle;spacingTop=-1;spacingLeft=3;spacingRight=3;rotatable=0;labelPosition=right;points=[];portConstraint=eastwest;strokeColor=inherit;" parent="zcc9LRr5MqMrH8K2ugcq-29" vertex="1">
          <mxGeometry y="111" width="160" height="8" as="geometry" />
        </mxCell>
        <mxCell id="zcc9LRr5MqMrH8K2ugcq-32" value="+ method(type): type" style="text;strokeColor=none;fillColor=none;align=left;verticalAlign=top;spacingLeft=4;spacingRight=4;overflow=hidden;rotatable=0;points=[[0,0.5],[1,0.5]];portConstraint=eastwest;whiteSpace=wrap;html=1;fontColor=#000000;" parent="zcc9LRr5MqMrH8K2ugcq-29" vertex="1">
          <mxGeometry y="119" width="160" height="26" as="geometry" />
        </mxCell>
        <mxCell id="zcc9LRr5MqMrH8K2ugcq-33" value="Configuração de Notificações" style="swimlane;fontStyle=1;align=center;verticalAlign=top;childLayout=stackLayout;horizontal=1;startSize=26;horizontalStack=0;resizeParent=1;resizeParentMax=0;resizeLast=0;collapsible=1;marginBottom=0;whiteSpace=wrap;html=1;fillColor=none;fontColor=#000000;strokeColor=#000000;" parent="1" vertex="1">
          <mxGeometry x="881" y="500" width="306" height="164" as="geometry" />
        </mxCell>
        <mxCell id="zcc9LRr5MqMrH8K2ugcq-34" value="+ id: UUID&lt;br&gt;+ usuarioId: UUID&lt;br&gt;+ tipoEvento: Enum (despesa vencendo, divisão, etc.)&lt;br&gt;+ preferencia: Enum (email, push, SMS)" style="text;strokeColor=none;fillColor=none;align=left;verticalAlign=top;spacingLeft=4;spacingRight=4;overflow=hidden;rotatable=0;points=[[0,0.5],[1,0.5]];portConstraint=eastwest;whiteSpace=wrap;html=1;fontColor=#000000;" parent="zcc9LRr5MqMrH8K2ugcq-33" vertex="1">
          <mxGeometry y="26" width="306" height="104" as="geometry" />
        </mxCell>
        <mxCell id="zcc9LRr5MqMrH8K2ugcq-35" value="" style="line;strokeWidth=1;fillColor=none;align=left;verticalAlign=middle;spacingTop=-1;spacingLeft=3;spacingRight=3;rotatable=0;labelPosition=right;points=[];portConstraint=eastwest;strokeColor=inherit;" parent="zcc9LRr5MqMrH8K2ugcq-33" vertex="1">
          <mxGeometry y="130" width="306" height="8" as="geometry" />
        </mxCell>
        <mxCell id="zcc9LRr5MqMrH8K2ugcq-36" value="+ method(type): type" style="text;strokeColor=none;fillColor=none;align=left;verticalAlign=top;spacingLeft=4;spacingRight=4;overflow=hidden;rotatable=0;points=[[0,0.5],[1,0.5]];portConstraint=eastwest;whiteSpace=wrap;html=1;fontColor=#000000;" parent="zcc9LRr5MqMrH8K2ugcq-33" vertex="1">
          <mxGeometry y="138" width="306" height="26" as="geometry" />
        </mxCell>
        <mxCell id="zcc9LRr5MqMrH8K2ugcq-37" value="&lt;font style=&quot;color: rgb(0, 0, 0);&quot;&gt;Despesa&lt;/font&gt;" style="swimlane;fontStyle=1;align=center;verticalAlign=top;childLayout=stackLayout;horizontal=1;startSize=26;horizontalStack=0;resizeParent=1;resizeParentMax=0;resizeLast=0;collapsible=1;marginBottom=0;whiteSpace=wrap;html=1;fillColor=none;fontColor=#000000;strokeColor=#000000;" parent="1" vertex="1">
          <mxGeometry x="302" y="278" width="294" height="358" as="geometry" />
        </mxCell>
        <mxCell id="zcc9LRr5MqMrH8K2ugcq-38" value="&lt;span style=&quot;background-color: transparent;&quot;&gt;&lt;font style=&quot;color: light-dark(rgb(0, 0, 0), rgb(0, 0, 0));&quot;&gt;+ id: UUID&lt;/font&gt;&lt;/span&gt;&lt;div&gt;&lt;span style=&quot;background-color: transparent;&quot;&gt;&lt;font style=&quot;color: light-dark(rgb(0, 0, 0), rgb(0, 0, 0));&quot;&gt;+ valorTotal: Decimal&lt;/font&gt;&lt;/span&gt;&lt;/div&gt;&lt;div&gt;&lt;span style=&quot;background-color: transparent;&quot;&gt;&lt;font style=&quot;color: light-dark(rgb(0, 0, 0), rgb(0, 0, 0));&quot;&gt;+ data: Date&lt;/font&gt;&lt;/span&gt;&lt;/div&gt;&lt;div&gt;&lt;span style=&quot;background-color: transparent;&quot;&gt;&lt;font style=&quot;color: light-dark(rgb(0, 0, 0), rgb(0, 0, 0));&quot;&gt;+ descrição: String&lt;/font&gt;&lt;/span&gt;&lt;/div&gt;&lt;div&gt;&lt;span style=&quot;background-color: transparent;&quot;&gt;&lt;font style=&quot;color: light-dark(rgb(0, 0, 0), rgb(0, 0, 0));&quot;&gt;+ tipoDespesaId: UUID&lt;/font&gt;&lt;/span&gt;&lt;/div&gt;&lt;div&gt;&lt;span style=&quot;background-color: transparent;&quot;&gt;&lt;font style=&quot;color: light-dark(rgb(0, 0, 0), rgb(0, 0, 0));&quot;&gt;+ ambienteId: UUID&lt;/font&gt;&lt;/span&gt;&lt;/div&gt;&lt;div&gt;&lt;span style=&quot;background-color: transparent;&quot;&gt;&lt;font color=&quot;#000000&quot;&gt;&lt;div style=&quot;&quot;&gt;+ Nome: String&lt;/div&gt;&lt;div style=&quot;&quot;&gt;&lt;span style=&quot;background-color: transparent;&quot;&gt;+ ValorParcelado: Decimal&lt;/span&gt;&lt;/div&gt;&lt;div style=&quot;&quot;&gt;+ TotalParcelas: integer&lt;/div&gt;&lt;div style=&quot;&quot;&gt;+ ParcelaAtual: integer&lt;/div&gt;&lt;div style=&quot;&quot;&gt;+ formaPagamento: Enum (Crédito, Débito, Pix, etc.)&lt;/div&gt;&lt;div style=&quot;&quot;&gt;+ divididoComOutroUsuario: Boolean&lt;/div&gt;&lt;div style=&quot;&quot;&gt;+ porcentagemDivisao: Decimal&lt;/div&gt;&lt;div style=&quot;&quot;&gt;+ pagador: String&lt;/div&gt;&lt;div style=&quot;&quot;&gt;+ categoria: String&lt;/div&gt;&lt;div style=&quot;&quot;&gt;+ Usuariodadivisaoid: UUID&lt;/div&gt;&lt;div style=&quot;&quot;&gt;+ data: Date&lt;/div&gt;&lt;div style=&quot;&quot;&gt;+ descriçao: String&lt;/div&gt;&lt;div style=&quot;&quot;&gt;+ tipoDespesaId: UUID&lt;/div&gt;&lt;div style=&quot;&quot;&gt;+ ambienteId: UUID&lt;/div&gt;&lt;/font&gt;&lt;/span&gt;&lt;/div&gt;" style="text;strokeColor=none;fillColor=none;align=left;verticalAlign=top;spacingLeft=4;spacingRight=4;overflow=hidden;rotatable=0;points=[[0,0.5],[1,0.5]];portConstraint=eastwest;whiteSpace=wrap;html=1;fontColor=#000000;" parent="zcc9LRr5MqMrH8K2ugcq-37" vertex="1">
          <mxGeometry y="26" width="294" height="298" as="geometry" />
        </mxCell>
        <mxCell id="zcc9LRr5MqMrH8K2ugcq-39" value="" style="line;strokeWidth=1;fillColor=none;align=left;verticalAlign=middle;spacingTop=-1;spacingLeft=3;spacingRight=3;rotatable=0;labelPosition=right;points=[];portConstraint=eastwest;strokeColor=inherit;" parent="zcc9LRr5MqMrH8K2ugcq-37" vertex="1">
          <mxGeometry y="324" width="294" height="8" as="geometry" />
        </mxCell>
        <mxCell id="zcc9LRr5MqMrH8K2ugcq-40" value="+ method(type): type" style="text;strokeColor=none;fillColor=none;align=left;verticalAlign=top;spacingLeft=4;spacingRight=4;overflow=hidden;rotatable=0;points=[[0,0.5],[1,0.5]];portConstraint=eastwest;whiteSpace=wrap;html=1;fontColor=#000000;" parent="zcc9LRr5MqMrH8K2ugcq-37" vertex="1">
          <mxGeometry y="332" width="294" height="26" as="geometry" />
        </mxCell>
        <mxCell id="zcc9LRr5MqMrH8K2ugcq-41" value="&lt;font style=&quot;color: rgb(0, 0, 0);&quot;&gt;Relatório&lt;/font&gt;" style="swimlane;fontStyle=1;align=center;verticalAlign=top;childLayout=stackLayout;horizontal=1;startSize=26;horizontalStack=0;resizeParent=1;resizeParentMax=0;resizeLast=0;collapsible=1;marginBottom=0;whiteSpace=wrap;html=1;fillColor=none;fontColor=#000000;strokeColor=#000000;" parent="1" vertex="1">
          <mxGeometry x="945" y="216" width="160" height="170" as="geometry" />
        </mxCell>
        <mxCell id="zcc9LRr5MqMrH8K2ugcq-42" value="&lt;div&gt;+ id: UUID&lt;/div&gt;&lt;div&gt;+ usuarioId: UUID&lt;/div&gt;&lt;div&gt;+ parametros: JSON&lt;/div&gt;&lt;div&gt;+ geradoEm: DateTime&lt;/div&gt;&lt;div&gt;+ formato: Enum (PDF, CSV)&lt;/div&gt;&lt;div&gt;+ dados: Blob ou link&lt;/div&gt;" style="text;strokeColor=none;fillColor=none;align=left;verticalAlign=top;spacingLeft=4;spacingRight=4;overflow=hidden;rotatable=0;points=[[0,0.5],[1,0.5]];portConstraint=eastwest;whiteSpace=wrap;html=1;fontColor=#000000;" parent="zcc9LRr5MqMrH8K2ugcq-41" vertex="1">
          <mxGeometry y="26" width="160" height="110" as="geometry" />
        </mxCell>
        <mxCell id="zcc9LRr5MqMrH8K2ugcq-43" value="" style="line;strokeWidth=1;fillColor=none;align=left;verticalAlign=middle;spacingTop=-1;spacingLeft=3;spacingRight=3;rotatable=0;labelPosition=right;points=[];portConstraint=eastwest;strokeColor=inherit;" parent="zcc9LRr5MqMrH8K2ugcq-41" vertex="1">
          <mxGeometry y="136" width="160" height="8" as="geometry" />
        </mxCell>
        <mxCell id="zcc9LRr5MqMrH8K2ugcq-44" value="+ method(type): type" style="text;strokeColor=none;fillColor=none;align=left;verticalAlign=top;spacingLeft=4;spacingRight=4;overflow=hidden;rotatable=0;points=[[0,0.5],[1,0.5]];portConstraint=eastwest;whiteSpace=wrap;html=1;fontColor=#000000;" parent="zcc9LRr5MqMrH8K2ugcq-41" vertex="1">
          <mxGeometry y="144" width="160" height="26" as="geometry" />
        </mxCell>
        <mxCell id="dHUviEuhAGDQgn52xXgc-2" value="Exportação" style="swimlane;fontStyle=1;align=center;verticalAlign=top;childLayout=stackLayout;horizontal=1;startSize=26;horizontalStack=0;resizeParent=1;resizeParentMax=0;resizeLast=0;collapsible=1;marginBottom=0;whiteSpace=wrap;html=1;fillColor=none;fontColor=#000000;strokeColor=#000000;" vertex="1" parent="1">
          <mxGeometry x="1132" y="335" width="247" height="126" as="geometry" />
        </mxCell>
        <mxCell id="dHUviEuhAGDQgn52xXgc-3" value="+&amp;nbsp;&lt;span style=&quot;background-color: transparent;&quot;&gt;id: UUID&lt;/span&gt;&lt;div&gt;+ relatorioId: UUID&lt;/div&gt;&lt;div&gt;+ status: Enum (Pendente, Concluído, Erro)&lt;/div&gt;&lt;div&gt;+ linkDownload: String&lt;/div&gt;" style="text;strokeColor=none;fillColor=none;align=left;verticalAlign=top;spacingLeft=4;spacingRight=4;overflow=hidden;rotatable=0;points=[[0,0.5],[1,0.5]];portConstraint=eastwest;whiteSpace=wrap;html=1;fontColor=#000000;" vertex="1" parent="dHUviEuhAGDQgn52xXgc-2">
          <mxGeometry y="26" width="247" height="66" as="geometry" />
        </mxCell>
        <mxCell id="dHUviEuhAGDQgn52xXgc-4" value="" style="line;strokeWidth=1;fillColor=none;align=left;verticalAlign=middle;spacingTop=-1;spacingLeft=3;spacingRight=3;rotatable=0;labelPosition=right;points=[];portConstraint=eastwest;strokeColor=inherit;" vertex="1" parent="dHUviEuhAGDQgn52xXgc-2">
          <mxGeometry y="92" width="247" height="8" as="geometry" />
        </mxCell>
        <mxCell id="dHUviEuhAGDQgn52xXgc-5" value="+ method(type): type" style="text;strokeColor=none;fillColor=none;align=left;verticalAlign=top;spacingLeft=4;spacingRight=4;overflow=hidden;rotatable=0;points=[[0,0.5],[1,0.5]];portConstraint=eastwest;whiteSpace=wrap;html=1;fontColor=#000000;" vertex="1" parent="dHUviEuhAGDQgn52xXgc-2">
          <mxGeometry y="100" width="247" height="26" as="geometry" />
        </mxCell>
        <mxCell id="dHUviEuhAGDQgn52xXgc-6" value="Classname" style="swimlane;fontStyle=1;align=center;verticalAlign=top;childLayout=stackLayout;horizontal=1;startSize=26;horizontalStack=0;resizeParent=1;resizeParentMax=0;resizeLast=0;collapsible=1;marginBottom=0;whiteSpace=wrap;html=1;fillColor=none;fontColor=#000000;strokeColor=#000000;" vertex="1" parent="1">
          <mxGeometry x="240" y="765" width="160" height="86" as="geometry" />
        </mxCell>
        <mxCell id="dHUviEuhAGDQgn52xXgc-7" value="+ field: type" style="text;strokeColor=none;fillColor=none;align=left;verticalAlign=top;spacingLeft=4;spacingRight=4;overflow=hidden;rotatable=0;points=[[0,0.5],[1,0.5]];portConstraint=eastwest;whiteSpace=wrap;html=1;fontColor=#000000;" vertex="1" parent="dHUviEuhAGDQgn52xXgc-6">
          <mxGeometry y="26" width="160" height="26" as="geometry" />
        </mxCell>
        <mxCell id="dHUviEuhAGDQgn52xXgc-8" value="" style="line;strokeWidth=1;fillColor=none;align=left;verticalAlign=middle;spacingTop=-1;spacingLeft=3;spacingRight=3;rotatable=0;labelPosition=right;points=[];portConstraint=eastwest;strokeColor=inherit;" vertex="1" parent="dHUviEuhAGDQgn52xXgc-6">
          <mxGeometry y="52" width="160" height="8" as="geometry" />
        </mxCell>
        <mxCell id="dHUviEuhAGDQgn52xXgc-9" value="+ method(type): type" style="text;strokeColor=none;fillColor=none;align=left;verticalAlign=top;spacingLeft=4;spacingRight=4;overflow=hidden;rotatable=0;points=[[0,0.5],[1,0.5]];portConstraint=eastwest;whiteSpace=wrap;html=1;fontColor=#000000;" vertex="1" parent="dHUviEuhAGDQgn52xXgc-6">
          <mxGeometry y="60" width="160" height="26" as="geometry" />
        </mxCell>
      </root>
    </mxGraphModel>
  </diagram>
</mxfile>
